<svg width="12" height="12" viewBox="0 0 12 12" fill="none" xmlns="http://www.w3.org/2000/svg">
<path fill-rule="evenodd" clip-rule="evenodd" d="M11.0079 1.80458C11.2683 1.54423 11.2683 1.12212 11.0079 0.861766C10.7476 0.601417 10.3255 0.601417 10.0651 0.861766L5.86984 5.05703L1.67475 0.861939C1.4144 0.60159 0.992295 0.601589 0.731945 0.861939C0.471595 1.12229 0.471596 1.5444 0.731945 1.80475L4.92703 5.99984L0.731944 10.1949C0.471595 10.4553 0.471595 10.8774 0.731944 11.1377C0.992294 11.3981 1.4144 11.3981 1.67475 11.1377L5.86984 6.94265L10.0651 11.1379C10.3255 11.3983 10.7476 11.3983 11.0079 11.1379C11.2683 10.8776 11.2683 10.4554 11.0079 10.1951L6.81265 5.99984L11.0079 1.80458Z" fill="white"/>
</svg>
