<svg width="30" height="30" viewBox="0 0 30 30" fill="none" xmlns="http://www.w3.org/2000/svg">
<path d="M13.2384 1.61935C14.204 0.793552 15.7855 0.793552 16.7651 1.61935L18.9763 3.52287C19.3961 3.88678 20.1798 4.1807 20.7396 4.1807H23.1187C24.6021 4.1807 25.8197 5.3984 25.8197 6.88203V9.26143C25.8197 9.8073 26.1136 10.6051 26.4774 11.025L28.3807 13.2364C29.2064 14.2022 29.2064 15.7838 28.3807 16.7636L26.4774 18.975C26.1136 19.3949 25.8197 20.1787 25.8197 20.7386V23.118C25.8197 24.6016 24.6021 25.8193 23.1187 25.8193H20.7396C20.1938 25.8193 19.3961 26.1132 18.9763 26.4771L16.7651 28.3807C15.7995 29.2064 14.218 29.2064 13.2384 28.3807L11.0272 26.4771C10.6074 26.1132 9.82369 25.8193 9.2639 25.8193H6.84281C5.35936 25.8193 4.14182 24.6016 4.14182 23.118V20.7246C4.14182 20.1787 3.84793 19.3949 3.49806 18.975L1.60877 16.7496C0.797076 15.7838 0.797076 14.2162 1.60877 13.2504L3.49806 11.025C3.84793 10.6051 4.14182 9.82129 4.14182 9.27543V6.86803C4.14182 5.3844 5.35936 4.16671 6.84281 4.16671H9.2639C9.8097 4.16671 10.6074 3.87278 11.0272 3.50887L13.2384 1.61935Z" fill="black" stroke="black" stroke-width="1.5" stroke-linecap="round" stroke-linejoin="round"/>
</svg>
