<svg width="200" height="119" viewBox="0 0 200 119" fill="none" xmlns="http://www.w3.org/2000/svg">
<path d="M100 35.7C92.7668 35.7 85.8299 38.2075 80.7153 42.6709C75.6006 47.1342 72.7273 53.1878 72.7273 59.5C72.7273 65.8122 75.6006 71.8658 80.7153 76.3291C85.8299 80.7925 92.7668 83.3 100 83.3C107.233 83.3 114.17 80.7925 119.285 76.3291C124.399 71.8658 127.273 65.8122 127.273 59.5C127.273 53.1878 124.399 47.1342 119.285 42.6709C114.17 38.2075 107.233 35.7 100 35.7ZM100 99.1667C87.9447 99.1667 76.3832 94.9875 67.8588 87.5486C59.3344 80.1096 54.5455 70.0203 54.5455 59.5C54.5455 48.9797 59.3344 38.8904 67.8588 31.4514C76.3832 24.0125 87.9447 19.8333 100 19.8333C112.055 19.8333 123.617 24.0125 132.141 31.4514C140.666 38.8904 145.455 48.9797 145.455 59.5C145.455 70.0203 140.666 80.1096 132.141 87.5486C123.617 94.9875 112.055 99.1667 100 99.1667ZM100 0C54.5455 0 15.7273 24.6727 0 59.5C15.7273 94.3273 54.5455 119 100 119C145.455 119 184.273 94.3273 200 59.5C184.273 24.6727 145.455 0 100 0Z" fill="silver"/>
</svg>
