<svg width="200" height="170" viewBox="0 0 200 170" fill="none" xmlns="http://www.w3.org/2000/svg">
<path d="M111.621 30.5881C107.806 30.1755 103.93 29.939 100 29.8801C82.8292 29.9563 65.0296 34.1328 48.1812 42.1356C35.6715 48.3224 23.4857 57.0565 12.9028 67.8303C7.70534 73.33 1.07183 81.2934 0 89.7897C0.126667 97.1498 8.02551 106.234 12.9028 111.75C22.8267 122.1 34.6952 130.584 48.1812 137.444C48.6397 137.667 49.0994 137.886 49.5605 138.103L37.0485 159.953L54.0494 170L145.952 10.0009L129.588 0L111.621 30.5881ZM150.427 41.5008L137.939 63.1428C143.684 70.6062 147.095 79.8098 147.095 89.7897C147.095 114.665 126.008 134.832 99.9878 134.832C98.8629 134.832 97.7728 134.711 96.6674 134.637L88.4032 148.943C92.2146 149.351 96.0683 149.648 99.9999 149.699C117.187 149.622 134.977 145.398 151.807 137.444C164.316 131.257 176.514 122.523 187.097 111.75C192.295 106.25 198.928 98.2864 200 89.7897C199.873 82.4299 191.975 73.3455 187.097 67.8301C177.173 57.4795 165.293 48.9954 151.807 42.1353C151.351 41.9146 150.885 41.7162 150.427 41.5008ZM99.9879 44.7479C101.129 44.7479 102.261 44.7935 103.381 44.8699L93.7012 61.6294C80.1156 64.3836 69.9219 75.9421 69.9219 89.7777C69.9219 93.2533 70.5621 96.5806 71.7407 99.6648C71.7421 99.6683 71.7394 99.6737 71.7407 99.6772L62.0361 116.485C56.2775 109.015 52.8807 99.7813 52.8807 89.7896C52.8809 64.9147 73.9681 44.7477 99.9879 44.7479ZM128.149 80.0856L106.336 117.877C119.848 115.071 129.968 103.565 129.968 89.7777C129.968 86.3655 129.287 83.1215 128.149 80.0856Z" fill="black"/>
</svg>
