<svg width="25" height="25" viewBox="0 0 25 25" fill="none" xmlns="http://www.w3.org/2000/svg">
<g clip-path="url(#clip0_38_3429)">
<path d="M24.9836 12.4657C24.9836 11.4778 24.9016 10.757 24.724 10.0094H13.1792V14.4681H19.9557C19.8192 15.5762 19.0814 17.2449 17.4419 18.3662L17.4189 18.5155L21.0691 21.2785L21.322 21.3032C23.6446 19.2073 24.9836 16.1235 24.9836 12.4657" fill="#4285F4"/>
<path d="M13.1791 24.2134C16.4991 24.2134 19.2862 23.1453 21.322 21.3032L17.4418 18.3662C16.4035 19.0737 15.0099 19.5676 13.1791 19.5676C9.92749 19.5676 7.16768 17.4718 6.18389 14.575L6.03969 14.5869L2.2441 17.4571L2.19446 17.5919C4.21649 21.5167 8.3699 24.2134 13.1791 24.2134Z" fill="#34A853"/>
<path d="M6.18393 14.5749C5.92435 13.8274 5.77412 13.0263 5.77412 12.1987C5.77412 11.371 5.92435 10.57 6.17028 9.82244L6.1634 9.66323L2.32024 6.74695L2.1945 6.80539C1.36113 8.43406 0.882935 10.263 0.882935 12.1987C0.882935 14.1344 1.36113 15.9632 2.1945 17.5919L6.18393 14.5749" fill="#FBBC05"/>
<path d="M13.1791 4.82972C15.4881 4.82972 17.0456 5.80424 17.9337 6.61862L21.4039 3.30789C19.2726 1.3722 16.4991 0.184082 13.1791 0.184082C8.3699 0.184082 4.21649 2.88069 2.19446 6.80544L6.17023 9.8225C7.16768 6.92564 9.92749 4.82972 13.1791 4.82972" fill="#EB4335"/>
</g>
<defs>
<clipPath id="clip0_38_3429">
<rect x="0.882935" y="0.184082" width="24.1121" height="24.1121" rx="5.02336" fill="white"/>
</clipPath>
</defs>
</svg>
