<svg width="13" height="13" viewBox="0 0 13 13" fill="none" xmlns="http://www.w3.org/2000/svg">
<path fill-rule="evenodd" clip-rule="evenodd" d="M7.08408 1.64294C7.08408 1.27814 6.78836 0.982422 6.42357 0.982422C6.05878 0.982422 5.76306 1.27814 5.76306 1.64294V6.26653H1.13946C0.774665 6.26653 0.478943 6.56226 0.478943 6.92705C0.478943 7.29184 0.774665 7.58756 1.13946 7.58756H5.76306V12.2112C5.76306 12.576 6.05878 12.8717 6.42357 12.8717C6.78836 12.8717 7.08408 12.576 7.08408 12.2112V7.58756H11.7077C12.0725 7.58756 12.3682 7.29184 12.3682 6.92705C12.3682 6.56226 12.0725 6.26653 11.7077 6.26653H7.08408V1.64294Z" fill="white"/>
</svg>
