<svg width="22" height="22" viewBox="0 0 22 22" fill="none" xmlns="http://www.w3.org/2000/svg">
<path fill-rule="evenodd" clip-rule="evenodd" d="M2.30762 10C2.30762 5.58172 5.88934 2 10.3076 2C14.7259 2 18.3076 5.58172 18.3076 10C18.3076 14.4183 14.7259 18 10.3076 18C5.88934 18 2.30762 14.4183 2.30762 10ZM10.3076 0C4.78477 0 0.307617 4.47715 0.307617 10C0.307617 15.5228 4.78477 20 10.3076 20C12.4489 20 14.4331 19.327 16.06 18.1809C16.2855 18.022 16.3982 17.9426 16.5027 17.9221C16.5997 17.9031 16.6856 17.9105 16.7779 17.9458C16.8773 17.9839 16.9677 18.0742 17.1484 18.2549L19.9645 21.0711C20.3551 21.4616 20.9882 21.4616 21.3788 21.0711C21.7693 20.6805 21.7693 20.0474 21.3788 19.6569L18.5626 16.8407C18.3819 16.66 18.2915 16.5696 18.2535 16.4702C18.2181 16.3779 18.2107 16.292 18.2298 16.195C18.2503 16.0905 18.3297 15.9778 18.4885 15.7523C19.6346 14.1254 20.3076 12.1413 20.3076 10C20.3076 4.47715 15.8305 0 10.3076 0Z" fill="black"/>
</svg>
